# xmcd
# 
# Track frame offsets:
#     150
#     12653
#     27918
#     37414
#     50776
#     60557
#     77293
#     94773
#     99615
#     107331
#     113481
#     120362
#     128393
#     149400
# 
# Disc length: 4440
# 
# Revision: 8
# Processed by: cddbd v1.5.2PL0 Copyright (c) Steve Scherf et al.
# Submitted via: fre:ac v1.0.17
# 
DISCID=b011560e
DTITLE=Per Gessle - Son Of A Plumber [CD1)
DYEAR=2005
DGENRE=Pop
TTITLE0=Drowning In Wonderful Thoughts About Her
TTITLE1=Jo-Anna Says
TTITLE2=I Have A Party In My Head (I Hope It Never Ends)
TTITLE3=C'mon
TTITLE4=Week With Four Thursdays
TTITLE5=Hey Mr. DJ (Won't You Play Another Love Song)
TTITLE6=Late, Later On
TTITLE7=Ronnie Lane
TTITLE8=Are You An Old Hippie, Sir?
TTITLE9=Double-headed Elvis
TTITLE10=Something In The System
TTITLE11=Speed Boat To Cuba
TTITLE12=Come Back Tomorrow (And We Do It Again)
TTITLE13=Data
EXTD=YEAR: 2006
EXTT0=
EXTT1=
EXTT2=
EXTT3=
EXTT4=
EXTT5=
EXTT6=
EXTT7=
EXTT8=
EXTT9=
EXTT10=
EXTT11=
EXTT12=
EXTT13=
PLAYORDER=
